<?xml version="1.0" standalone="no"?>
<!DOCTYPE svg PUBLIC "-//W3C//DTD SVG 1.1//EN" "http://www.w3.org/Graphics/SVG/1.1/DTD/svg11.dtd" >
<svg xmlns="http://www.w3.org/2000/svg">
<metadata>
Created by FontPrep 20130207 at Mon Nov 21 09:44:33 2016
 By pierre
Copyright 2011 by Timo Gaessner, 123buero. All rights reserved.
</metadata>
<defs>
<font id="d7515c8903f80839201eea94ef008f5e" horiz-adv-x='1024' >
  <font-face 
    font-family="MaisonNeue-Bold"
    font-weight="700"
    font-stretch="normal"
    units-per-em="2048"
    panose-1="2 0 0 0 0 0 0 0 0 0"
    ascent="1587"
    descent="-461"
    x-height="1085"
    cap-height="1434"
    bbox="-57 -614 1913 1853"
    underline-thickness="102"
    underline-position="-612"
    unicode-range="U+000D-FB02"
  />
<missing-glyph horiz-adv-x="748" 
d="M136 68h408v1229h-408v-1229zM68 0v1365h544v-1365h-544z" />
    <glyph glyph-name="uniFB01" unicode="fi" horiz-adv-x="1265" 
d="M856 1243v252h266v-252h-266zM31 860v225h176v154q0 139 73 197.5t212 58.5h172v-235h-117q-49 0 -68.5 -19t-19.5 -67v-89h663v-1085h-266v860h-389v-860h-266v860h-170z" />
    <glyph glyph-name="uniFB02" unicode="fl" horiz-adv-x="1273" 
d="M31 860v225h174v154q0 139 72.5 197.5t211.5 58.5h173v-235h-117q-49 0 -68.5 -19t-19.5 -67v-89h397v410h276v-1495h-276v860h-389v-860h-266v860h-168z" />
    <glyph glyph-name=".notdef" horiz-adv-x="748" 
d="M136 68h408v1229h-408v-1229zM68 0v1365h544v-1365h-544z" />
    <glyph glyph-name="glyph1" horiz-adv-x="0" 
 />
    <glyph glyph-name="glyph1" horiz-adv-x="0" 
 />
    <glyph glyph-name="glyph2" horiz-adv-x="682" 
 />
    <glyph glyph-name="uni000D" unicode="&#xd;" horiz-adv-x="512" 
 />
    <glyph glyph-name="space" unicode=" " horiz-adv-x="512" 
 />
    <glyph glyph-name="exclam" unicode="!" horiz-adv-x="673" 
d="M197 473v961h276v-961h-276zM184 0v291h305v-291h-305z" />
    <glyph glyph-name="quotedbl" unicode="&#x22;" horiz-adv-x="800" 
d="M463 930v504h174v-504h-174zM164 930v504h174v-504h-174z" />
    <glyph glyph-name="numbersign" unicode="#" horiz-adv-x="1388" 
d="M584 705h194l17 284h-195zM123 524v181h270l17 284h-215v180h227l16 265h191l-17 -265h195l16 265h193l-17 -265h267v-180h-279l-16 -284h221v-181h-234l-14 -264h-192l14 264h-195l-14 -264h-192l14 264h-256z" />
    <glyph glyph-name="dollar" unicode="$" horiz-adv-x="1345" 
d="M733 225q118 0 184 44t66 124t-51.5 122.5t-198.5 86.5v-377zM424 1062q0 -58 43 -92.5t154 -70.5v307q-102 -4 -149.5 -45t-47.5 -99zM152 1066q0 150 125.5 267t343.5 129v125h112v-127q184 -14 313 -109t171 -272l-259 -75q-66 178 -225 198v-340q354 -107 437 -219.5
t83 -232.5q0 -196 -139.5 -315t-380.5 -126v-170h-112v174q-222 21 -360.5 148.5t-168.5 357.5l291 64q25 -141 78 -216.5t160 -93.5v402q-257 75 -363 178t-106 253z" />
    <glyph glyph-name="percent" unicode="%" horiz-adv-x="1898" 
d="M1292 399q0 -110 37 -174.5t107 -64.5t107.5 64.5t37.5 174.5q-1 217 -145 217t-144 -217zM1436 805q131 0 235.5 -102.5t104.5 -298.5t-100 -312.5t-240 -116.5t-239 102.5t-99 313.5t103.5 312.5t234.5 101.5zM381 -70l1001 1669l148 -92l-1000 -1667zM317 1053
q0 -110 37 -175t107 -65t107.5 65t37.5 175q0 217 -144 217t-145 -217zM461 1458q131 0 235.5 -102.5t104.5 -297.5q0 -196 -100 -312.5t-240 -116.5t-239 102.5t-99 312.5q0 211 103.5 312.5t234.5 101.5z" />
    <glyph glyph-name="ampersand" unicode="&#x26;" horiz-adv-x="1437" 
d="M358 421q0 -95 65.5 -148.5t191.5 -53.5q239 0 274 168l-354 307q-70 -36 -123.5 -107t-53.5 -166zM236 1114q0 106 57 187.5t146.5 122t198.5 40.5t199.5 -39t152.5 -121t79 -200l-242 -53q-23 94 -68 135t-113 41t-105 -32.5t-37 -72.5t16 -71t72 -80l338 -289h4v170
h221v-365l262 -225l-164 -194l-178 155q-42 -84 -100.5 -136t-150.5 -85t-230 -33q-228 0 -360 116.5t-132 303.5t98.5 292t172.5 148q-137 123 -137 285z" />
    <glyph glyph-name="quotesingle" unicode="'" horiz-adv-x="501" 
d="M164 930v504h174v-504h-174z" />
    <glyph glyph-name="parenleft" unicode="(" horiz-adv-x="765" 
d="M143 620q0 138 20 250t50 199.5t87.5 200.5t131.5 205.5t119 134.5l133 -111q-205 -253 -265.5 -440.5t-60.5 -438.5q0 -250 92 -492.5t234 -420.5l-133 -110q-71 68 -150.5 198.5t-131 246t-89 278t-37.5 300.5z" />
    <glyph glyph-name="parenright" unicode=")" horiz-adv-x="765" 
d="M408 643q0 336 -100 518t-226 338l133 111q150 -142 279 -396t129 -571q0 -162 -49 -374t-168.5 -408t-190.5 -264l-133 110q142 178 234 420.5t92 515.5z" />
    <glyph glyph-name="asterisk" unicode="*" horiz-adv-x="1021" 
d="M410 1434h200v-258l211 124l99 -178l-234 -133l182 -211l-151 -127l-209 240l-201 -242l-149 129l176 213l-232 133l103 174l205 -120v256z" />
    <glyph glyph-name="plus" unicode="+" horiz-adv-x="1193" 
d="M82 641v205h407v414h216v-414h407v-205h-407v-457h-216v457h-407z" />
    <glyph glyph-name="comma" unicode="," horiz-adv-x="632" 
d="M164 0v291h305v-258q0 -132 -73.5 -214t-231.5 -93v139q67 11 83.5 38.5t16.5 96.5h-100z" />
    <glyph glyph-name="hyphen" unicode="-" horiz-adv-x="837" 
d="M82 569v205h674v-205h-674z" />
    <glyph glyph-name="period" unicode="." horiz-adv-x="632" 
d="M164 0v291h305v-291h-305z" />
    <glyph glyph-name="slash" unicode="/" horiz-adv-x="923" 
d="M10 -25l738 1557l165 -76l-737 -1552z" />
    <glyph glyph-name="zero" unicode="0" horiz-adv-x="1245" 
d="M623 225q93 0 183.5 70t90.5 444q0 248 -68 358.5t-206 110.5t-206.5 -110.5t-68.5 -379.5t69 -381t206 -112zM72 729q0 191 41 331t115.5 227.5t174 132t282 44.5t336 -180t153.5 -545q0 -578 -214.5 -674t-336.5 -96t-220.5 44t-173.5 134.5t-116 240.5t-41 341z" />
    <glyph glyph-name="one" unicode="1" horiz-adv-x="972" 
d="M686 1434v-1434h-264v1126l-309 -194v297l329 205h244z" />
    <glyph glyph-name="two" unicode="2" horiz-adv-x="1204" 
d="M621 1464q287 0 384 -154t97 -294q0 -197 -124.5 -298t-245.5 -162q-121 -60 -192 -97t-101 -80q-29 -43 -29 -109h702v-270h-1008v207q0 195 95 307q48 56 125.5 105t215.5 118t173 92q97 61 119 139q8 30 8 66q0 79 -64 132t-175 53q-219 0 -247 -279l-262 35
q15 234 153.5 361.5t375.5 127.5z" />
    <glyph glyph-name="three" unicode="3" horiz-adv-x="1214" 
d="M618 215q121 0 188.5 55.5t67.5 157.5t-68.5 155.5t-199.5 53.5h-94v217h84q97 0 155 45t58 131t-54 137.5t-151 51.5q-187 0 -219 -218l-252 48q19 193 148.5 304t328.5 111t327 -107t128 -286t-79 -231t-105 -60v-6q59 -11 155.5 -90t96.5 -251q0 -211 -132.5 -337.5
t-373.5 -126.5q-240 0 -389 126.5t-177 373.5l269 57q41 -311 288 -311z" />
    <glyph glyph-name="four" unicode="4" horiz-adv-x="1214" 
d="M745 530v701h-4l-422 -701h426zM41 274v258l545 902h420v-904h168v-256h-168v-274h-261v274h-704z" />
    <glyph glyph-name="five" unicode="5" horiz-adv-x="1226" 
d="M637 750q-185 0 -287 -154l-215 109l125 729h766v-256h-557l-55 -324l2 -2q16 25 88.5 65.5t183.5 40.5q210 0 343.5 -134.5t133.5 -346.5q0 -159 -73.5 -276t-193 -174.5t-267.5 -57.5q-213 0 -350.5 106t-198.5 281l260 111q33 -113 108 -179.5t186 -66.5t188 68
t77 196t-75.5 196.5t-188.5 68.5z" />
    <glyph glyph-name="six" unicode="6" horiz-adv-x="1277" 
d="M418 474q0 -114 72 -183.5t196 -69.5t189 73.5t65 187.5t-68 185.5t-190 71.5t-193 -75.5t-71 -189.5zM92 688q0 168 40.5 306t115 242.5t187.5 166t233 61.5q224 0 336.5 -109t142.5 -261l-250 -66q-52 191 -229 191q-129 0 -209 -118.5t-86 -312.5l2 -2
q38 60 127.5 113t200.5 53t193.5 -30.5t150 -88.5t108.5 -151.5t41 -209.5t-40.5 -212t-149 -193.5t-316.5 -97.5q-259 0 -382.5 133.5t-169.5 275.5t-46 310z" />
    <glyph glyph-name="seven" unicode="7" horiz-adv-x="1024" 
d="M10 1178v256h973v-287l-629 -1147h-327l682 1174v4h-699z" />
    <glyph glyph-name="eight" unicode="8" horiz-adv-x="1179" 
d="M381 1060q0 -73 57.5 -124t151.5 -51t150.5 51t56.5 124t-54 124t-153 51t-154 -51t-55 -124zM324 442q0 -100 68 -160.5t198 -60.5t197 60.5t67 159.5t-69.5 165t-194.5 66t-195.5 -65t-70.5 -165zM53 414q0 122 67.5 222.5t190.5 143.5v4q-91 36 -140.5 115t-49.5 182
q0 164 129 273.5t340 109.5t340 -109.5t129 -273.5q0 -103 -50 -182t-141 -115v-4q126 -44 192 -144.5t66 -225.5q0 -208 -146.5 -324.5t-389.5 -116.5t-390 117t-147 328z" />
    <glyph glyph-name="nine" unicode="9" horiz-adv-x="1253" 
d="M334 964q0 -110 69.5 -179.5t187.5 -69.5t186.5 58.5t68.5 176.5t-70 193.5t-186 75.5t-186 -72.5t-70 -182.5zM72 984q0 132 69.5 247t184.5 174t230 59t243 -40.5t240 -219.5t112 -522t-139.5 -528t-398.5 -185t-361 124t-129 231l244 90q26 -97 87.5 -148t181.5 -51
t191 103t64 317h-4q-11 -41 -95 -99.5t-253 -58.5t-318 130.5t-149 376.5z" />
    <glyph glyph-name="colon" unicode=":" horiz-adv-x="632" 
d="M164 795v290h305v-290h-305zM164 0v291h305v-291h-305z" />
    <glyph glyph-name="semicolon" unicode=";" horiz-adv-x="632" 
d="M164 795v290h305v-290h-305zM164 0v291h305v-258q0 -132 -73.5 -214t-231.5 -93v139q67 11 83.5 38.5t16.5 96.5h-100z" />
    <glyph glyph-name="less" unicode="&#x3c;" horiz-adv-x="1077" 
d="M82 649l2 144l799 477l112 -180l-614 -369l614 -369l-114 -184z" />
    <glyph glyph-name="equal" unicode="=" horiz-adv-x="1153" 
d="M102 840v204h949v-204h-949zM102 465v205h949v-205h-949z" />
    <glyph glyph-name="greater" unicode="&#x3e;" horiz-adv-x="1077" 
d="M82 352l614 369l-614 369l113 180l798 -477l2 -144l-798 -481z" />
    <glyph glyph-name="question" unicode="?" horiz-adv-x="1124" 
d="M397 0v291h305v-291h-305zM573 1464q212 0 351 -115t139 -273t-63 -230.5t-152 -126.5q-6 -3 -28 -16.5t-28.5 -17t-25.5 -16t-25.5 -18t-21 -17.5t-20 -20t-21.5 -29t-16 -71v-49h-248v63q0 164 83.5 220.5t144.5 93.5t88 64q56 56 56 130t-56 123t-146 49
q-160 0 -213.5 -79t-59.5 -193l-270 22q6 225 137.5 365.5t394.5 140.5z" />
    <glyph glyph-name="at" unicode="@" horiz-adv-x="1495" 
d="M612 551q0 -44 34 -69t86 -25t95 24t43 68v166h-4q-9 -23 -69 -37l-84 -21q-55 -13 -78 -37.5t-23 -68.5zM82 712q0 324 182 535t522 211q180 0 328.5 -94t223.5 -257t75 -351t-35.5 -285t-102 -136.5t-178.5 -39.5t-175 92q-42 -45 -88.5 -68.5t-118.5 -23.5
q-119 0 -197 69.5t-78 171.5t55 159t164 83l101 23q60 12 84 31.5t24 56.5q0 86 -112 86t-138 -115l-155 45q16 99 91 163.5t201 64.5t204.5 -69.5t78.5 -205.5v-336q0 -71 76 -71q148 0 148 278q0 244 -89.5 367.5t-187 170t-223.5 46.5t-227 -46t-166 -127.5t-99 -190
t-34 -302t125.5 -360t379.5 -166.5q75 0 143 22.5t99 44.5l31 23l80 -133q-164 -109 -339 -109q-340 0 -506.5 209.5t-166.5 533.5z" />
    <glyph glyph-name="A" unicode="A" horiz-adv-x="1290" 
d="M444 465h392l-193 559h-4zM10 0l518 1434h236l516 -1434h-285l-82 236h-546l-82 -236h-275z" />
    <glyph glyph-name="B" unicode="B" horiz-adv-x="1329" 
d="M440 856h297q85 0 133 40.5t48 119.5t-48 120.5t-133 41.5h-297v-322zM440 256h334q92 0 144.5 41t52.5 139t-52.5 146.5t-142.5 48.5h-336v-375zM164 0v1434h608q190 0 306 -111t116 -283t-156 -264v-2q93 -39 151 -124t58 -204q0 -205 -125 -327q-63 -60 -157.5 -89.5
t-253.5 -29.5h-547z" />
    <glyph glyph-name="C" unicode="C" horiz-adv-x="1343" 
d="M82 726q0 186 52.5 326.5t186.5 276t368 135.5q235 0 389.5 -138t178.5 -372l-274 -43q-18 123 -83 210t-201 87t-234 -123.5t-98 -345.5q0 -384 134.5 -449t202.5 -65q135 0 199 95t82 249l287 -63q-34 -251 -182.5 -394t-401.5 -143t-381 135t-176.5 285.5t-48.5 336.5
z" />
    <glyph glyph-name="D" unicode="D" horiz-adv-x="1335" 
d="M440 256h191q193 0 264.5 121t71.5 351t-89.5 340t-234.5 110h-203v-922zM164 0v1434h479q316 0 468.5 -213t152.5 -502q0 -450 -212.5 -584.5t-420.5 -134.5h-467z" />
    <glyph glyph-name="E" unicode="E" horiz-adv-x="1183" 
d="M164 0v1434h907v-256h-631v-322h574v-246h-574v-354h631v-256h-907z" />
    <glyph glyph-name="F" unicode="F" horiz-adv-x="1144" 
d="M164 0v1434h909v-256h-633v-379h576v-244h-576v-555h-276z" />
    <glyph glyph-name="G" unicode="G" horiz-adv-x="1337" 
d="M367 739q0 -384 134.5 -449t203.5 -65q133 0 209.5 75.5t76.5 213.5h-266v236h530v-191q0 -273 -153.5 -431.5t-409.5 -158.5t-384.5 135t-177 285.5t-48.5 336.5t52.5 326.5t186.5 276t366 135.5t385 -131t183 -356l-276 -45q-52 276 -274 276q-142 0 -240 -123.5
t-98 -345.5z" />
    <glyph glyph-name="H" unicode="H" horiz-adv-x="1372" 
d="M164 0v1434h276v-578h492v578h276v-1434h-276v621h-492v-621h-276z" />
    <glyph glyph-name="I" unicode="I" horiz-adv-x="624" 
d="M174 0v1434h277v-1434h-277z" />
    <glyph glyph-name="J" unicode="J" horiz-adv-x="940" 
d="M397 225q57 0 85 31t28 104v1074h276v-1053q0 -209 -102 -310.5t-287 -101.5q-241 0 -304.5 136t-72.5 200l248 72q29 -152 129 -152z" />
    <glyph glyph-name="K" unicode="K" horiz-adv-x="1275" 
d="M143 0v1434h277v-603h4l508 603h321l-536 -633l579 -801h-333l-433 590h-4l-106 -141v-449h-277z" />
    <glyph glyph-name="L" unicode="L" horiz-adv-x="1062" 
d="M164 0v1434h276v-1178h592v-256h-868z" />
    <glyph glyph-name="M" unicode="M" horiz-adv-x="1734" 
d="M164 0v1434h285l415 -930h4l416 930h287v-1434h-271v881h-4l-407 -881h-45l-408 881h-4v-881h-268z" />
    <glyph glyph-name="N" unicode="N" horiz-adv-x="1411" 
d="M164 0v1434h276l525 -940h4v940h278v-1434h-272l-531 940h-4v-940h-276z" />
    <glyph glyph-name="O" unicode="O" horiz-adv-x="1409" 
d="M369 721q0 -374 133 -436t239 -62t202.5 116t96.5 369q0 254 -96.5 377t-236.5 123t-239 -119t-99 -368zM82 721q0 152 34.5 273.5t94 207t139 145.5t169.5 88.5t186 28.5t235 -44.5t263 -224t124 -466.5q0 -458 -209.5 -609t-412 -151t-364 115.5t-210.5 300t-49 336.5z
" />
    <glyph glyph-name="P" unicode="P" horiz-adv-x="1249" 
d="M440 778h301q92 0 151.5 54t59.5 152t-61 146t-150 48h-301v-400zM164 0v1434h581q220 0 357 -124t137 -333t-132 -332t-362 -123h-305v-522h-276z" />
    <glyph glyph-name="Q" unicode="Q" horiz-adv-x="1415" 
d="M466.5 340q97.5 -117 226.5 -117q128 0 196 47l-295 295l139 140l268 -269q39 112 39 319t-96.5 330t-236.5 123t-239 -119t-99 -376q0 -256 97.5 -373zM82 721q0 152 34.5 273.5t94 207t139 145.5t169.5 88.5t186 28.5t235 -44.5t263 -224t124 -469.5q0 -291 -129 -486
l135 -134l-139 -139l-127 127q-158 -125 -361 -125t-364.5 115.5t-210.5 300t-49 336.5z" />
    <glyph glyph-name="R" unicode="R" horiz-adv-x="1302" 
d="M440 772h283q112 0 173.5 51t61.5 154t-61.5 155t-173.5 52h-283v-412zM164 0v1434h581q222 0 358 -123.5t136 -333.5q0 -155 -81 -264t-222 -154l305 -559h-299l-289 532h-213v-532h-276z" />
    <glyph glyph-name="S" unicode="S" horiz-adv-x="1224" 
d="M638 225q126 0 195.5 42t69.5 113t-27 106.5t-103.5 70.5t-270.5 95t-286.5 159.5t-92.5 254.5t92 242.5t185 121.5t198 34q204 0 353.5 -94.5t187.5 -296.5l-269 -67q-30 94 -90 148t-170 54t-162.5 -40.5t-52.5 -97.5t28 -83.5t104.5 -58t232.5 -84.5
q238 -81 326 -177.5t88 -272.5t-143.5 -300.5t-385.5 -124.5t-391.5 128.5t-181.5 381.5l290 64q26 -168 88 -243t188 -75z" />
    <glyph glyph-name="T" unicode="T" horiz-adv-x="1157" 
d="M20 1178v256h1117v-256h-420v-1178h-277v1178h-420z" />
    <glyph glyph-name="U" unicode="U" horiz-adv-x="1345" 
d="M133 467v967h277v-955q0 -118 66 -186t196 -68t197 68t67 182v959h276v-967q0 -242 -147 -370t-393 -128t-392.5 128t-146.5 370z" />
    <glyph glyph-name="V" unicode="V" horiz-adv-x="1302" 
d="M10 1434h291l354 -1018h7l344 1018h286l-512 -1434h-252z" />
    <glyph glyph-name="W" unicode="W" horiz-adv-x="1857" 
d="M61 1434h281l184 -975h6l330 975h139l330 -975h6l185 975h274l-278 -1434h-287l-295 891h-12l-297 -891h-287z" />
    <glyph glyph-name="X" unicode="X" horiz-adv-x="1251" 
d="M20 0l449 772l-387 662h315l258 -494h4l263 494h305l-416 -715l420 -719h-316l-288 551h-4l-297 -551h-306z" />
    <glyph glyph-name="Y" unicode="Y" horiz-adv-x="1212" 
d="M743 0h-274v604l-469 830h297l307 -588h4l307 588h297l-469 -830v-604z" />
    <glyph glyph-name="Z" unicode="Z" horiz-adv-x="1200" 
d="M82 0v260l692 903v4h-663v267h1007v-260l-696 -904v-4h696v-266h-1036z" />
    <glyph glyph-name="bracketleft" unicode="[" horiz-adv-x="731" 
d="M143 -373v1868h527v-174h-342v-1520h342v-174h-527z" />
    <glyph glyph-name="backslash" unicode="\" horiz-adv-x="923" 
d="M10 1456l166 76l737 -1557l-165 -71z" />
    <glyph glyph-name="bracketright" unicode="]" horiz-adv-x="731" 
d="M143 -199h342v1520h-342v174h527v-1868h-527v174z" />
    <glyph glyph-name="asciicircum" unicode="^" horiz-adv-x="1146" 
d="M123 666l354 768h193l354 -768h-207l-244 557l-243 -557h-207z" />
    <glyph glyph-name="underscore" unicode="_" horiz-adv-x="1232" 
d="M102 -143h1028v-185h-1028v185z" />
    <glyph glyph-name="grave" unicode="`" horiz-adv-x="612" 
d="M82 1475h283l165 -256h-223z" />
    <glyph glyph-name="a" unicode="a" 
d="M328 309q0 -110 159 -110q122 0 182 46t60 113v189h-4q-9 -17 -28.5 -36.5t-138.5 -49.5q-118 -30 -174 -56t-56 -96zM721 784q0 42 -46.5 74.5t-120.5 32.5q-131 0 -178 -53t-69 -125l-221 92q39 136 151 223.5t299 87.5t318 -101t131 -327v-688h-223v104h-4
q-51 -85 -142.5 -110t-172.5 -25t-158.5 27t-145 95t-67.5 206q0 137 83.5 210t248.5 113t224.5 62.5t76 41t16.5 60.5z" />
    <glyph glyph-name="b" unicode="b" horiz-adv-x="1226" 
d="M410 444q0 -99 62.5 -167t174.5 -68t177 85.5t65 249.5t-64.5 248.5t-176.5 84.5t-175 -68t-63 -166v-199zM684 -31q-181 0 -287 135h-4v-104h-250v1495h267v-514h4q4 5 19 27t84.5 65t172.5 43q200 0 332.5 -158t132.5 -417t-128 -415.5t-343 -156.5z" />
    <glyph glyph-name="c" unicode="c" 
d="M72 530q0 122 38 256t169 232t307 98q177 0 299.5 -106.5t150.5 -284.5l-248 -47q-41 199 -208 199q-113 0 -179.5 -85t-66.5 -249t65 -249t169 -85t157.5 61.5t69.5 167.5l252 -65q-37 -194 -159.5 -299t-325.5 -105t-307.5 109.5t-143.5 219.5t-39 232z" />
    <glyph glyph-name="d" unicode="d" horiz-adv-x="1226" 
d="M338 544q0 -164 65 -249.5t177 -85.5t174.5 68t62.5 167v199q0 98 -62.5 166t-174.5 68t-177 -84.5t-65 -248.5zM543 -31q-215 0 -343 156.5t-128 417.5q0 134 40 245t142.5 219.5t284.5 108.5q134 0 195.5 -54.5t78.5 -80.5h4v514h266v-1495h-249v104h-5
q-108 -135 -286 -135z" />
    <glyph glyph-name="e" unicode="e" horiz-adv-x="1142" 
d="M577 883q-102 0 -164.5 -63.5t-70.5 -157.5h471q-9 104 -71.5 162.5t-164.5 58.5zM72 542q0 260 142 417t358 157t357.5 -157t141.5 -416v-80h-729q6 -125 68.5 -191.5t167.5 -66.5t164 51.5t106 118.5l186 -164q-166 -242 -448 -242q-227 0 -370.5 156.5t-143.5 416.5z
" />
    <glyph glyph-name="f" unicode="f" horiz-adv-x="731" 
d="M31 860v225h174v154q0 139 72.5 197.5t211.5 58.5h213v-235h-157q-49 0 -68.5 -19t-19.5 -67v-89h274v-225h-266v-860h-266v860h-168z" />
    <glyph glyph-name="g" unicode="g" horiz-adv-x="1236" 
d="M338 544q0 -162 74 -248.5t186 -86.5t176 64.5t64 158.5v223q0 93 -64 157.5t-176 64.5t-186 -85.5t-74 -247.5zM72 542q0 134 41.5 245.5t147 220t294.5 108.5q190 0 291 -135h4v104h254v-1085q0 -238 -138.5 -365t-357.5 -127q-171 0 -287.5 74t-170.5 197l198 137
q48 -91 107 -133.5t158 -42.5t162 54.5t63 172.5v137h-4q-31 -55 -106.5 -95t-170.5 -40t-183.5 38t-156 109t-106.5 181.5t-39 244.5z" />
    <glyph glyph-name="h" unicode="h" horiz-adv-x="1189" 
d="M143 0v1495h267v-514h4q32 54 107.5 94.5t156.5 40.5q173 0 276 -106.5t103 -286.5v-723h-266v664q0 91 -48.5 148.5t-142.5 57.5t-142 -52.5t-48 -135.5v-682h-267z" />
    <glyph glyph-name="i" unicode="i" horiz-adv-x="552" 
d="M143 1243v252h267v-252h-267zM143 0v1085h267v-1085h-267z" />
    <glyph glyph-name="j" unicode="j" horiz-adv-x="557" 
d="M147 1243v252h267v-252h-267zM20 -123h50q77 0 77 90v1118h267v-1191q0 -293 -281 -293h-113v276z" />
    <glyph glyph-name="k" unicode="k" horiz-adv-x="1177" 
d="M143 0v1495h267v-858h4l395 448h334l-391 -440l426 -645h-295l-332 496h-4l-137 -156v-340h-267z" />
    <glyph glyph-name="l" unicode="l" horiz-adv-x="563" 
d="M143 0v1495h277v-1495h-277z" />
    <glyph glyph-name="m" unicode="m" horiz-adv-x="1771" 
d="M143 0v1085h244v-104h4q37 58 107.5 96.5t155.5 38.5t161 -40t115 -103h4q42 63 117.5 103t165.5 40q195 0 308 -103t113 -270v-743h-243v688q0 80 -45.5 131t-139.5 51t-142 -47t-48 -121v-702h-244v688q0 78 -48.5 130t-139.5 52t-139 -47t-48 -121v-702h-258z" />
    <glyph glyph-name="n" unicode="n" horiz-adv-x="1208" 
d="M143 0v1085h256v-104h4q44 57 122 96t165 39q181 0 283 -107t102 -298v-711h-266v645q0 112 -43.5 168.5t-143.5 56.5t-156 -55.5t-56 -150.5v-664h-267z" />
    <glyph glyph-name="o" unicode="o" horiz-adv-x="1159" 
d="M334 542q0 -162 66 -247.5t180 -85.5t179.5 86.5t65.5 246.5t-66.5 247.5t-178.5 87.5t-179 -86.5t-67 -248.5zM72 530q0 122 39 256t169.5 232t299.5 98q208 0 316.5 -108.5t149.5 -219t41 -246.5t-39 -245t-107.5 -180.5t-161 -109.5t-199.5 -38t-199.5 38
t-161.5 109.5t-108 181.5t-39 232z" />
    <glyph glyph-name="p" unicode="p" horiz-adv-x="1247" 
d="M410 432q0 -94 63.5 -158.5t175.5 -64.5t186 86.5t74 248.5t-73.5 247.5t-185.5 85.5t-176 -64.5t-64 -157.5v-223zM143 -461v1546h254v-104h4q51 85 142 110t167 25t161 -38t153.5 -108.5t110 -182t41.5 -245.5t-39 -244.5t-141 -219.5t-298 -109q-146 0 -206 53.5
t-78 81.5h-4v-565h-267z" />
    <glyph glyph-name="q" unicode="q" horiz-adv-x="1247" 
d="M338 544q0 -162 74 -248.5t186 -86.5t176 64.5t64 158.5v223q0 93 -64 157.5t-176 64.5t-186 -85.5t-74 -247.5zM72 542q0 134 41 245.5t146.5 220t293.5 108.5q120 0 192 -46t91 -75l10 -14h4v104h254v-1546h-266v565h-4q-51 -85 -138.5 -110t-164.5 -25t-163 38
t-152 109t-105 181.5t-39 244.5z" />
    <glyph glyph-name="r" unicode="r" horiz-adv-x="751" 
d="M143 0v1085h252v-114h4q31 61 92 98t121 37t109 -21l-41 -258q-49 17 -84 17q-186 0 -186 -248v-596h-267z" />
    <glyph glyph-name="s" unicode="s" horiz-adv-x="1058" 
d="M748 729q-62 168 -224 168q-90 0 -135 -29t-45 -73t52.5 -69t211.5 -69q160 -45 225.5 -79t114.5 -92.5t49 -180.5t-108.5 -229t-336.5 -107q-114 0 -207 34t-176 118t-108 237l240 62q14 -109 76.5 -168t164.5 -59t160 32.5t58 84.5t-46 75.5t-137 48.5t-110 31
q-188 54 -276.5 126t-88.5 198t107.5 226.5t300.5 100.5q192 0 304.5 -85.5t154.5 -233.5z" />
    <glyph glyph-name="t" unicode="t" horiz-adv-x="792" 
d="M31 860v225h174v267h252v-267h274v-225h-270v-448q0 -87 28.5 -121.5t116.5 -34.5h88v-256h-112q-222 0 -302.5 94.5t-80.5 292.5v473h-168z" />
    <glyph glyph-name="u" unicode="u" horiz-adv-x="1187" 
d="M133 385v700h266v-671q0 -103 39 -146t130 -43t150.5 49.5t59.5 159.5v651h266v-1085h-253v104h-5q-38 -50 -108.5 -92.5t-173.5 -42.5q-189 0 -280 112.5t-91 303.5z" />
    <glyph glyph-name="v" unicode="v" horiz-adv-x="1134" 
d="M20 1085h277l270 -698h4l271 698h272l-434 -1085h-225z" />
    <glyph glyph-name="w" unicode="w" horiz-adv-x="1662" 
d="M61 1085h261l143 -725h6l242 725h241l224 -723h4l164 723h256l-261 -1085h-262l-248 780h-4l-268 -780h-258z" />
    <glyph glyph-name="x" unicode="x" horiz-adv-x="1130" 
d="M20 0l377 561l-354 524h276l244 -364h4l244 364h276l-354 -524l377 -561h-285l-258 389h-4l-258 -389h-285z" />
    <glyph glyph-name="y" unicode="y" horiz-adv-x="1126" 
d="M10 1085h271l280 -735h4l281 735h270l-624 -1546h-265l217 514z" />
    <glyph glyph-name="z" unicode="z" horiz-adv-x="1101" 
d="M82 0v223l577 613v4h-555v245h895v-219l-565 -606v-4h586v-256h-938z" />
    <glyph glyph-name="braceleft" unicode="{" horiz-adv-x="792" 
d="M82 492v182h57q59 0 84 29.5t25 95.5v360q0 196 86 266t252 70h104v-184h-133q-68 0 -96.5 -43t-28.5 -144v-331q0 -123 -58 -163t-85 -46q21 -5 82 -47.5t61 -159.5v-379q0 -102 30 -144t105 -42h123v-185h-104q-166 0 -252 70t-86 266v410q0 65 -24.5 92t-84.5 27h-57z
" />
    <glyph glyph-name="bar" unicode="|" horiz-adv-x="542" 
d="M184 -614v2201h174v-2201h-174z" />
    <glyph glyph-name="braceright" unicode="}" horiz-adv-x="792" 
d="M82 -188h123q75 0 105 42t30 144v379q0 112 57.5 156.5t83.5 50.5q-54 12 -97.5 65.5t-43.5 143.5v331q0 101 -28.5 144t-96.5 43h-133v184h104q166 0 252 -70t86 -266v-360q0 -66 25 -95.5t84 -29.5h57v-182h-57q-60 0 -84.5 -27t-24.5 -92v-410q0 -196 -86 -266
t-252 -70h-104v185z" />
    <glyph glyph-name="asciitilde" unicode="~" horiz-adv-x="1257" 
d="M404 946q63 0 133.5 -28t161 -89t167.5 -61q98 0 144 182l166 -45q-22 -128 -98 -234t-220 -106q-68 0 -139 28t-161.5 89t-168.5 61q-95 0 -141 -182l-166 45q45 251 152 295.5t170 44.5z" />
    <glyph glyph-name="uni00A0" unicode="&#xa0;" horiz-adv-x="409" 
 />
    <glyph glyph-name="exclamdown" unicode="&#xa1;" horiz-adv-x="673" 
d="M197 -348v960h276v-960h-276zM184 795v290h305v-290h-305z" />
    <glyph glyph-name="cent" unicode="&#xa2;" horiz-adv-x="1138" 
d="M354 542q0 -148 52.5 -232t148.5 -99v661q-94 -15 -147.5 -98.5t-53.5 -231.5zM627 -225h-72v196q-205 14 -334 165t-129 408t132.5 405.5t330.5 164.5v178h72v-176q172 -9 287 -114.5t143 -276.5l-248 -47q-35 182 -182 196v-663q154 18 188 227l252 -65
q-35 -186 -150 -290t-290 -112v-196z" />
    <glyph glyph-name="sterling" unicode="&#xa3;" horiz-adv-x="1312" 
d="M164 0v258h63q40 0 68.5 23t28.5 71v266h-160v185h160v209q0 341 165 396.5t259 55.5q387 0 442 -411l-254 -52q-20 114 -58.5 166t-117.5 52q-160 0 -160 -193v-223h352v-185h-352v-360h586v-258h-1022z" />
    <glyph glyph-name="currency" unicode="&#xa4;" horiz-adv-x="1329" 
d="M510 472q66 -54 154 -54t153.5 54.5t65.5 199.5q0 204 -87 233t-131 29t-81 -12t-88.5 -55.5t-51.5 -192.5q0 -148 66 -202zM180 672q0 172 96 307l-133 133l82 82l129 -131q136 117 314 117t309 -113l127 127l82 -82l-131 -131q94 -137 94 -311t-96 -305l133 -132
l-82 -81l-131 129q-131 -105 -311 -105t-306 107l-131 -131l-82 81l133 134q-96 133 -96 305z" />
    <glyph glyph-name="yen" unicode="&#xa5;" horiz-adv-x="1380" 
d="M1235 827v-215h-410v-157h410v-215h-410v-240h-276v240h-410v215h410v157h-410v215h283l-340 607h303l299 -568h4l305 568h305l-346 -607h283z" />
    <glyph glyph-name="brokenbar" unicode="&#xa6;" horiz-adv-x="583" 
d="M184 657v670h215v-670h-215zM184 -268v669h215v-669h-215z" />
    <glyph glyph-name="section" unicode="&#xa7;" horiz-adv-x="1333" 
d="M379 639q0 -80 129 -129l274 -104q78 -31 103 -56q34 26 51.5 61.5t17.5 63.5q0 80 -129 129l-274 105q-78 31 -102 55q-34 -26 -52 -61.5t-18 -63.5zM102 637q0 80 51 157t132 115q-47 67 -47 176q0 170 116 274.5t298 104.5t295.5 -101.5t139.5 -291.5l-235 -43
q-26 191 -180 191q-79 0 -121.5 -41.5t-42.5 -95.5t34.5 -91t112.5 -69l361 -146q215 -86 215 -299q0 -81 -50.5 -157.5t-131.5 -114.5q47 -67 47 -176q0 -170 -117 -274.5t-299 -104.5t-295 101.5t-139 291.5l235 43q26 -190 181 -190q79 0 121 41t42 95t-34.5 91.5
t-112.5 69.5l-361 145q-215 86 -215 299z" />
    <glyph glyph-name="dieresis" unicode="&#xa8;" horiz-adv-x="862" 
d="M510 1219v235h250v-235h-250zM102 1219v235h250v-235h-250z" />
    <glyph glyph-name="copyright" unicode="&#xa9;" horiz-adv-x="1427" 
d="M397 720q0 183 93.5 287.5t219.5 104.5t201.5 -72.5t94.5 -195.5l-168 -31q-25 135 -115 135q-65 0 -102 -59t-37 -170t38.5 -168t100.5 -57q96 0 119 149l170 -39q-22 -131 -98 -202.5t-204 -71.5t-220.5 103.5t-92.5 286.5zM231 708q0 -118 63 -232t174 -180.5
t245 -66.5q203 0 343 145.5t140 349.5t-140 347t-343 143q-100 0 -189.5 -38.5t-153.5 -104.5t-101.5 -155.5t-37.5 -207.5zM82 725q0 176 82.5 320.5t227.5 227.5t321 83t321.5 -83t228.5 -228t83 -321t-83 -321t-228.5 -228t-321.5 -83t-321 83t-227.5 228.5t-82.5 321.5z
" />
    <glyph glyph-name="ordfeminine" unicode="&#xaa;" horiz-adv-x="700" 
d="M219 975q0 -62 92 -62q69 0 102 27t33 66v98q-14 -25 -102 -49t-106.5 -41t-18.5 -39zM304 768q-118 0 -175 55t-57 137t49 124.5t145 66.5t130 38t41 23.5t7 30.5q0 64 -97 64t-130 -101l-137 56q22 78 89 130t181 52t186 -61t72 -191v-406h-131v62h-2q-53 -80 -171 -80
z" />
    <glyph glyph-name="guillemotleft" unicode="&#xab;" horiz-adv-x="1189" 
d="M582 575l221 381h237l-223 -381l230 -385h-238zM164 575l221 381h238l-224 -381l230 -385h-238z" />
    <glyph glyph-name="logicalnot" unicode="&#xac;" horiz-adv-x="1222" 
d="M102 678v246h977v-570h-256v324h-721z" />
    <glyph glyph-name="uni00AD" unicode="&#xad;" horiz-adv-x="837" 
d="M82 569v205h674v-205h-674z" />
    <glyph glyph-name="registered" unicode="&#xae;" horiz-adv-x="884" 
d="M397 1106h56q69 0 69 58t-69 59h-56v-117zM311 870v428h150q71 0 110 -36t39 -90q0 -105 -92 -138l92 -164h-92l-86 156h-35v-156h-86zM152 1084q0 -124 82 -208.5t206 -84.5t208.5 84.5t84.5 208.5t-84.5 209t-208.5 85t-206 -85t-82 -209zM82 1084q0 154 103 258
t257 104t257.5 -104t103.5 -258t-103.5 -256.5t-257.5 -102.5t-257 102.5t-103 256.5z" />
    <glyph glyph-name="macron" unicode="&#xaf;" horiz-adv-x="794" 
d="M102 1270v164h590v-164h-590z" />
    <glyph glyph-name="degree" unicode="&#xb0;" horiz-adv-x="788" 
d="M268 1288q0 -80 35.5 -113.5t89.5 -33.5t89.5 33.5t35.5 113.5t-35.5 114t-89.5 34t-89.5 -34t-35.5 -114zM92 1285q0 131 87.5 224t216.5 93t214.5 -91t85.5 -225t-85 -222.5t-217 -88.5t-217 89.5t-85 220.5z" />
    <glyph glyph-name="plusminus" unicode="&#xb1;" horiz-adv-x="1193" 
d="M123 166v205h950v-205h-950zM82 856v205h407v311h216v-311h407v-205h-407v-354h-216v354h-407z" />
    <glyph glyph-name="uni00B2" unicode="&#xb2;" horiz-adv-x="708" 
d="M356 1853q136 0 219.5 -74t83.5 -189t-60.5 -178t-156.5 -109t-142 -73.5t-46 -72.5h414v-188h-615v137q0 112 60 178q53 63 192 127q98 49 123 67q57 44 57 100q0 112 -124 112t-146 -162l-174 22q9 142 94 222.5t221 80.5z" />
    <glyph glyph-name="uni00B3" unicode="&#xb3;" horiz-adv-x="694" 
d="M338 1690q-99 0 -117 -121l-170 33q12 118 90.5 184.5t200.5 66.5t199 -64.5t77 -172.5q0 -70 -32.5 -113t-67.5 -59v-4q41 -10 93.5 -61.5t52.5 -160.5t-81.5 -184.5t-227.5 -75.5t-236.5 76t-108.5 221l176 41q24 -174 164 -174q67 0 105.5 29t38.5 84q0 115 -150 115
h-57v141h55q107 0 107 94q0 49 -28 77t-83 28z" />
    <glyph glyph-name="acute" unicode="&#xb4;" horiz-adv-x="612" 
d="M82 1219l166 256h282l-225 -256h-223z" />
    <glyph glyph-name="mu" unicode="&#xb5;" horiz-adv-x="1198" 
d="M803 104q-65 -135 -237 -135q-94 0 -150 60h-4v-490h-258v1546h266v-641q0 -219 192 -219q187 0 187 193v667h266v-1085h-258v104h-4z" />
    <glyph glyph-name="paragraph" unicode="&#xb6;" horiz-adv-x="1122" 
d="M0 976q0 153 96.5 244t241.5 91h641v-1590h-195v1364h-260v-1364h-194v910q-140 3 -235 97.5t-95 247.5z" />
    <glyph glyph-name="periodcentered" unicode="&#xb7;" horiz-adv-x="632" 
d="M164 600v291h305v-291h-305z" />
    <glyph glyph-name="cedilla" unicode="&#xb8;" horiz-adv-x="538" 
d="M258 -190q-46 0 -82 -33l-108 61l96 162h121l-76 -119l2 -2q47 31 115 31t123 -44t55 -130t-65.5 -139.5t-166.5 -53.5q-156 0 -249 97l88 106q68 -65 149 -65q45 0 70.5 18.5t25.5 47.5t-26 46t-72 17z" />
    <glyph glyph-name="uni00B9" unicode="&#xb9;" horiz-adv-x="532" 
d="M389 1843v-874h-180v665l-189 -116v200l201 125h168z" />
    <glyph glyph-name="ordmasculine" unicode="&#xba;" horiz-adv-x="702" 
d="M217 1106q0 -88 34.5 -134t98.5 -46t98.5 47.5t34.5 133.5t-36.5 133.5t-96.5 47.5t-96.5 -47t-36.5 -135zM51 1108q0 158 86.5 248t212.5 90t213.5 -90t87.5 -248t-85 -249t-216 -91t-215 91t-84 249z" />
    <glyph glyph-name="guillemotright" unicode="&#xbb;" horiz-adv-x="1189" 
d="M561 190l230 385l-224 381h238l221 -381l-227 -385h-238zM143 190l230 385l-223 381h237l221 -381l-227 -385h-238z" />
    <glyph glyph-name="onequarter" unicode="&#xbc;" horiz-adv-x="1675" 
d="M1348 328v381h-5l-229 -381h234zM942 160v168l332 546h256v-546h94v-168h-94v-160h-184v160h-404zM238 -70l1001 1669l147 -92l-999 -1667zM399 1434v-875h-180v666l-188 -117v201l200 125h168z" />
    <glyph glyph-name="onehalf" unicode="&#xbd;" horiz-adv-x="1779" 
d="M1354 885q136 0 220.5 -74.5t84.5 -208.5t-88 -190.5t-186 -103.5t-119 -81q-13 -20 -13 -39h414v-188h-614v137q0 113 59 178q52 62 193 127q98 49 123 67q57 43 57 99q-1 112 -125 113q-124 0 -146 -162l-174 23q9 142 93.5 222.5t220.5 80.5zM238 -72l1001 1669
l147 -92l-999 -1667zM399 1434v-875h-180v666l-188 -117v201l200 125h168z" />
    <glyph glyph-name="threequarters" unicode="&#xbe;" horiz-adv-x="1816" 
d="M1489 328v381h-4l-230 -381h234zM1083 160v168l332 546h256v-546h94v-168h-94v-160h-184v160h-404zM406 -70l1001 1669l147 -92l-999 -1667zM489 1176q0 104 -105 104t-122 -121l-170 33q12 118 91 185t201 67t198.5 -65t76.5 -173q0 -70 -32.5 -113t-67.5 -59v-4
q41 -10 93.5 -61.5t52.5 -160.5t-81.5 -184t-227.5 -75t-236.5 76t-108.5 221l176 41q24 -174 166 -174q142 -1 142 113t-150 114h-57v141h55q106 0 106 95z" />
    <glyph glyph-name="questiondown" unicode="&#xbf;" horiz-adv-x="1124" 
d="M422 795v290h305v-290h-305zM463 571v50h248v-64q0 -164 -84 -220.5t-145 -93.5t-88 -64q-56 -57 -56 -131t56 -122.5t146 -48.5q160 0 213.5 80t59.5 193l270 -23q-6 -225 -137.5 -365.5t-394.5 -140.5q-212 0 -351 115.5t-139 273.5t63 230.5t132 113.5t79.5 48t31 20
t27.5 20t22 19.5t20.5 23t16 29.5t10.5 57z" />
    <glyph glyph-name="Agrave" unicode="&#xc0;" horiz-adv-x="1290" 
d="M444 465h392l-193 559h-4zM303 1823h283l166 -256h-224zM10 0l518 1434h236l516 -1434h-285l-82 236h-546l-82 -236h-275z" />
    <glyph glyph-name="Aacute" unicode="&#xc1;" horiz-adv-x="1290" 
d="M541 1567l166 256h282l-225 -256h-223zM444 465h392l-193 559h-4zM10 0l518 1434h236l516 -1434h-285l-82 236h-546l-82 -236h-275z" />
    <glyph glyph-name="Acircumflex" unicode="&#xc2;" horiz-adv-x="1290" 
d="M444 465h392l-193 559h-4zM369 1638l137 177h276l140 -177l-140 -108l-137 176l-141 -176zM10 0l518 1434h236l516 -1434h-285l-82 236h-546l-82 -236h-275z" />
    <glyph glyph-name="Atilde" unicode="&#xc3;" horiz-adv-x="1290" 
d="M444 465h392l-193 559h-4zM518 1792q85 0 158 -40t96 -40q60 0 76 70h135q-33 -226 -207 -226q-85 0 -158 40t-96 40q-61 0 -76 -69h-135q33 225 207 225zM10 0l518 1434h236l516 -1434h-285l-82 236h-546l-82 -236h-275z" />
    <glyph glyph-name="Adieresis" unicode="&#xc4;" horiz-adv-x="1290" 
d="M725 1567v235h250v-235h-250zM444 465h392l-193 559h-4zM317 1567v235h250v-235h-250zM10 0l518 1434h236l516 -1434h-285l-82 236h-546l-82 -236h-275z" />
    <glyph glyph-name="Aring" unicode="&#xc5;" horiz-adv-x="1290" 
d="M561 1610q0 -50 24.5 -77.5t58.5 -27.5t59.5 28t25.5 77t-26 74.5t-60 25.5t-58 -25t-24 -75zM444 465h392l-193 559h-4zM430 1608q0 92 61.5 156.5t153.5 64.5t152.5 -63.5t60.5 -171.5t-90 -171l512 -1423h-285l-82 236h-546l-82 -236h-275l514 1421q-94 62 -94 187z
" />
    <glyph glyph-name="AE" unicode="&#xc6;" horiz-adv-x="1783" 
d="M846 496v682h-121l-246 -682h367zM1671 1434v-256h-549v-322h492v-240h-492v-360h549v-256h-678l-2 6v-6h-145v250h-455l-96 -250h-285l539 1434h1122z" />
    <glyph glyph-name="Ccedilla" unicode="&#xc7;" horiz-adv-x="1343" 
d="M750 -190q-46 0 -82 -33l-109 61l80 135q-243 20 -400 206.5t-157 559.5q0 173 52.5 313.5t186.5 276t368 135.5q235 0 389.5 -138t178.5 -372l-274 -43q-18 123 -83 210t-201 87t-234 -123.5t-98 -345.5q0 -384 134.5 -449t202.5 -65q135 0 199 95t82 249l287 -63
q-33 -236 -166 -377t-348 -158l-58 -90l2 -2q46 31 114 31t123.5 -44t55.5 -130t-65 -139.5t-166 -53.5q-157 0 -250 97l88 106q68 -65 150 -65q45 0 70.5 18.5t25.5 47.5t-26 46t-72 17z" />
    <glyph glyph-name="Egrave" unicode="&#xc8;" horiz-adv-x="1183" 
d="M311 1823h283l166 -256h-223zM164 0v1434h907v-256h-631v-322h574v-246h-574v-354h631v-256h-907z" />
    <glyph glyph-name="Eacute" unicode="&#xc9;" horiz-adv-x="1183" 
d="M475 1567l166 256h283l-226 -256h-223zM164 0v1434h907v-256h-631v-322h574v-246h-574v-354h631v-256h-907z" />
    <glyph glyph-name="Ecircumflex" unicode="&#xca;" horiz-adv-x="1183" 
d="M352 1638l137 177h277l139 -177l-139 -108l-137 176l-142 -176zM164 0v1434h907v-256h-631v-322h574v-246h-574v-354h631v-256h-907z" />
    <glyph glyph-name="Edieresis" unicode="&#xcb;" horiz-adv-x="1183" 
d="M696 1567v235h250v-235h-250zM289 1567v235h250v-235h-250zM164 0v1434h907v-256h-631v-322h574v-246h-574v-354h631v-256h-907z" />
    <glyph glyph-name="Igrave" unicode="&#xcc;" horiz-adv-x="624" 
d="M174 0v1434h277v-1434h-277zM-14 1823h282l166 -256h-223z" />
    <glyph glyph-name="Iacute" unicode="&#xcd;" horiz-adv-x="624" 
d="M184 1567l166 256h283l-225 -256h-224zM174 0v1434h277v-1434h-277z" />
    <glyph glyph-name="Icircumflex" unicode="&#xce;" horiz-adv-x="624" 
d="M174 0v1434h277v-1434h-277zM35 1638l137 177h277l139 -177l-139 -108l-138 176l-141 -176z" />
    <glyph glyph-name="Idieresis" unicode="&#xcf;" horiz-adv-x="624" 
d="M391 1567v235h250v-235h-250zM174 0v1434h277v-1434h-277zM-16 1567v235h249v-235h-249z" />
    <glyph glyph-name="Eth" unicode="&#xd0;" horiz-adv-x="1353" 
d="M459 256h190q193 0 264.5 121t71.5 351t-89 340t-234 110h-203v-342h274v-226h-274v-354zM41 610v226h141v598h480q203 0 411.5 -149.5t208.5 -582.5t-212.5 -567.5t-420.5 -134.5h-467v610h-141z" />
    <glyph glyph-name="Ntilde" unicode="&#xd1;" horiz-adv-x="1411" 
d="M612 1792q85 0 158 -40t96 -40q60 0 76 70h135q-33 -226 -207 -226q-81 0 -156.5 40t-97.5 40q-60 0 -75 -69h-135q33 225 206 225zM164 0v1434h276l525 -940h4v940h278v-1434h-272l-531 940h-4v-940h-276z" />
    <glyph glyph-name="Ograve" unicode="&#xd2;" horiz-adv-x="1409" 
d="M379 1823h283l165 -256h-223zM369 721q0 -374 133 -436t239 -62t202.5 116t96.5 369q0 254 -96.5 377t-236.5 123t-239 -119t-99 -368zM82 721q0 152 34.5 273.5t94 207t139 145.5t169.5 88.5t186 28.5t235 -44.5t263 -224t124 -466.5q0 -458 -209.5 -609t-412 -151
t-364 115.5t-210.5 300t-49 336.5z" />
    <glyph glyph-name="Oacute" unicode="&#xd3;" horiz-adv-x="1409" 
d="M584 1567l166 256h282l-225 -256h-223zM369 721q0 -374 133 -436t239 -62t202.5 116t96.5 369q0 254 -96.5 377t-236.5 123t-239 -119t-99 -368zM82 721q0 152 34.5 273.5t94 207t139 145.5t169.5 88.5t186 28.5t235 -44.5t263 -224t124 -466.5q0 -458 -209.5 -609
t-412 -151t-364 115.5t-210.5 300t-49 336.5z" />
    <glyph glyph-name="Ocircumflex" unicode="&#xd4;" horiz-adv-x="1409" 
d="M440 1638l138 177h276l139 -177l-139 -108l-137 176l-142 -176zM369 721q0 -374 133 -436t239 -62t202.5 116t96.5 369q0 254 -96.5 377t-236.5 123t-239 -119t-99 -368zM82 721q0 152 34.5 273.5t94 207t139 145.5t169.5 88.5t186 28.5t235 -44.5t263 -224t124 -466.5
q0 -458 -209.5 -609t-412 -151t-364 115.5t-210.5 300t-49 336.5z" />
    <glyph glyph-name="Otilde" unicode="&#xd5;" horiz-adv-x="1409" 
d="M596 1792q85 0 158 -40t96 -40q60 0 76 70h135q-33 -226 -207 -226q-85 0 -158 40t-96 40q-61 0 -76 -69h-135q33 225 207 225zM369 721q0 -374 133 -436t239 -62t202.5 116t96.5 369q0 254 -96.5 377t-236.5 123t-239 -119t-99 -368zM82 721q0 152 34.5 273.5t94 207
t139 145.5t169.5 88.5t186 28.5t235 -44.5t263 -224t124 -466.5q0 -458 -209.5 -609t-412 -151t-364 115.5t-210.5 300t-49 336.5z" />
    <glyph glyph-name="Odieresis" unicode="&#xd6;" horiz-adv-x="1409" 
d="M784 1567v235h250v-235h-250zM377 1567v235h250v-235h-250zM369 721q0 -374 133 -436t239 -62t202.5 116t96.5 369q0 254 -96.5 377t-236.5 123t-239 -119t-99 -368zM82 721q0 152 34.5 273.5t94 207t139 145.5t169.5 88.5t186 28.5t235 -44.5t263 -224t124 -466.5
q0 -458 -209.5 -609t-412 -151t-364 115.5t-210.5 300t-49 336.5z" />
    <glyph glyph-name="multiply" unicode="&#xd7;" horiz-adv-x="1103" 
d="M82 369l324 323l-304 303l148 148l303 -303l301 301l147 -148l-301 -301l322 -321l-148 -148l-321 322l-324 -324z" />
    <glyph glyph-name="Oslash" unicode="&#xd8;" horiz-adv-x="1409" 
d="M689 223q86 0 218.5 60.5t132.5 445.5q0 195 -73 318l-437 -771q73 -53 159 -53zM718 1208q-150 0 -249.5 -119t-99.5 -349t69 -357l436 770q-76 55 -156 55zM687 1464q182 0 319 -82l47 82l112 -69l-53 -92q215 -205 215 -574q0 -458 -209.5 -609t-395.5 -151t-323 76
l-43 -76l-114 68l49 88q-209 202 -209 611t211.5 568.5t393.5 159.5z" />
    <glyph glyph-name="Ugrave" unicode="&#xd9;" horiz-adv-x="1345" 
d="M360 1823h283l166 -256h-223zM133 467v967h277v-955q0 -118 66 -186t196 -68t197 68t67 182v959h276v-967q0 -242 -147 -370t-393 -128t-392.5 128t-146.5 370z" />
    <glyph glyph-name="Uacute" unicode="&#xda;" horiz-adv-x="1345" 
d="M578 1567l165 256h283l-225 -256h-223zM133 467v967h277v-955q0 -118 66 -186t196 -68t197 68t67 182v959h276v-967q0 -242 -147 -370t-393 -128t-392.5 128t-146.5 370z" />
    <glyph glyph-name="Ucircumflex" unicode="&#xdb;" horiz-adv-x="1345" 
d="M403 1638l138 177h276l139 -177l-139 -108l-137 176l-141 -176zM133 467v967h277v-955q0 -118 66 -186t196 -68t197 68t67 182v959h276v-967q0 -242 -147 -370t-393 -128t-392.5 128t-146.5 370z" />
    <glyph glyph-name="Udieresis" unicode="&#xdc;" horiz-adv-x="1345" 
d="M752 1567v235h249v-235h-249zM344 1567v235h250v-235h-250zM133 467v967h277v-955q0 -118 66 -186t196 -68t197 68t67 182v959h276v-967q0 -242 -147 -370t-393 -128t-392.5 128t-146.5 370z" />
    <glyph glyph-name="Yacute" unicode="&#xdd;" horiz-adv-x="1212" 
d="M516 1567l166 256h283l-226 -256h-223zM743 0h-274v604l-469 830h297l307 -588h4l307 588h297l-469 -830v-604z" />
    <glyph glyph-name="Thorn" unicode="&#xde;" horiz-adv-x="1280" 
d="M440 541h301q98 0 160 51.5t62 146.5t-62.5 148t-159.5 53h-301v-399zM164 0v1434h276v-238h271q250 0 389 -114.5t139 -342.5q0 -454 -528 -454h-271v-285h-276z" />
    <glyph glyph-name="germandbls" unicode="&#xdf;" horiz-adv-x="1150" 
d="M123 0v1014q0 210 127 330t318 120t314.5 -107t123.5 -272q0 -106 -49 -176t-126 -104v-4q103 -35 170.5 -132t67.5 -231q0 -214 -124 -326t-353 -112h-66v225h39q260 0 260 228q0 114 -60 165.5t-153 51.5h-86v192h41q91 0 147 48t56 133t-53 135.5t-143 50.5
t-142.5 -54.5t-52.5 -164.5v-1010h-256z" />
    <glyph glyph-name="agrave" unicode="&#xe0;" 
d="M328 309q0 -110 159 -110q122 0 182 46t60 113v189h-4q-9 -17 -28.5 -36.5t-138.5 -49.5q-118 -30 -174 -56t-56 -96zM233 1475h283l166 -256h-223zM721 784q0 42 -46.5 74.5t-120.5 32.5q-131 0 -178 -53t-69 -125l-221 92q39 136 151 223.5t299 87.5t318 -101t131 -327
v-688h-223v104h-4q-51 -85 -142.5 -110t-172.5 -25t-158.5 27t-145 95t-67.5 206q0 137 83.5 210t248.5 113t224.5 62.5t76 41t16.5 60.5z" />
    <glyph glyph-name="aacute" unicode="&#xe1;" 
d="M397 1219l166 256h283l-225 -256h-224zM328 309q0 -110 159 -110q122 0 182 46t60 113v189h-4q-9 -17 -28.5 -36.5t-138.5 -49.5q-118 -30 -174 -56t-56 -96zM721 784q0 42 -46.5 74.5t-120.5 32.5q-131 0 -178 -53t-69 -125l-221 92q39 136 151 223.5t299 87.5t318 -101
t131 -327v-688h-223v104h-4q-51 -85 -142.5 -110t-172.5 -25t-158.5 27t-145 95t-67.5 206q0 137 83.5 210t248.5 113t224.5 62.5t76 41t16.5 60.5z" />
    <glyph glyph-name="acircumflex" unicode="&#xe2;" 
d="M328 309q0 -110 159 -110q122 0 182 46t60 113v189h-4q-9 -17 -28.5 -36.5t-138.5 -49.5q-118 -30 -174 -56t-56 -96zM270 1298l138 177h276l139 -177l-139 -108l-137 176l-141 -176zM721 784q0 42 -46.5 74.5t-120.5 32.5q-131 0 -178 -53t-69 -125l-221 92
q39 136 151 223.5t299 87.5t318 -101t131 -327v-688h-223v104h-4q-51 -85 -142.5 -110t-172.5 -25t-158.5 27t-145 95t-67.5 206q0 137 83.5 210t248.5 113t224.5 62.5t76 41t16.5 60.5z" />
    <glyph glyph-name="atilde" unicode="&#xe3;" 
d="M328 309q0 -110 159 -110q122 0 182 46t60 113v189h-4q-9 -17 -28.5 -36.5t-138.5 -49.5q-118 -30 -174 -56t-56 -96zM420 1444q85 0 157 -40t97 -40q60 0 76 70h135q-33 -226 -207 -226q-85 0 -157 40t-97 40q-61 0 -76 -69h-135q33 225 207 225zM721 784
q0 42 -46.5 74.5t-120.5 32.5q-131 0 -178 -53t-69 -125l-221 92q39 136 151 223.5t299 87.5t318 -101t131 -327v-688h-223v104h-4q-51 -85 -142.5 -110t-172.5 -25t-158.5 27t-145 95t-67.5 206q0 137 83.5 210t248.5 113t224.5 62.5t76 41t16.5 60.5z" />
    <glyph glyph-name="adieresis" unicode="&#xe4;" 
d="M629 1219v235h250v-235h-250zM328 309q0 -110 159 -110q122 0 182 46t60 113v189h-4q-9 -17 -28.5 -36.5t-138.5 -49.5q-118 -30 -174 -56t-56 -96zM221 1219v235h250v-235h-250zM721 784q0 42 -46.5 74.5t-120.5 32.5q-131 0 -178 -53t-69 -125l-221 92
q39 136 151 223.5t299 87.5t318 -101t131 -327v-688h-223v104h-4q-51 -85 -142.5 -110t-172.5 -25t-158.5 27t-145 95t-67.5 206q0 137 83.5 210t248.5 113t224.5 62.5t76 41t16.5 60.5z" />
    <glyph glyph-name="aring" unicode="&#xe5;" 
d="M467 1292q0 -50 24.5 -77t58.5 -27t59.5 27.5t25.5 76.5t-26 75t-60 26t-58 -25.5t-24 -75.5zM328 309q0 -110 159 -110q122 0 182 46t60 113v189h-4q-9 -17 -28.5 -36.5t-138.5 -49.5q-118 -30 -174 -56t-56 -96zM764 1290q0 -124 -96 -188q145 -31 231 -133.5
t86 -280.5v-688h-223v104h-4q-51 -85 -142.5 -110t-172.5 -25t-158.5 27t-145 95t-67.5 206q0 137 83.5 210t248.5 113t224.5 62.5t76 41t16.5 60.5t-46.5 74.5t-120.5 32.5q-131 0 -178 -53t-69 -125l-221 92q31 114 116 195t222 106q-88 61 -88 184q0 92 61.5 156.5
t153.5 64.5t152.5 -63.5t60.5 -157.5z" />
    <glyph glyph-name="ae" unicode="&#xe6;" horiz-adv-x="1800" 
d="M1235 883q-102 0 -165 -63.5t-71 -157.5h471q-9 104 -71 162.5t-164 58.5zM328 309q0 -110 159 -110q122 0 182 46t60 113v189h-4q-9 -17 -28.5 -36.5t-138.5 -49.5q-118 -30 -174 -56t-56 -96zM721 784q0 42 -45.5 74.5t-119.5 32.5q-132 0 -179 -52.5t-70 -125.5
l-221 92q37 131 148.5 221t300.5 90q231 0 354 -141h4q144 141 349 141t346 -157t141 -416v-80h-730q6 -125 68.5 -191.5t171.5 -66.5t163.5 55t100.5 135l205 -141q-148 -285 -465 -285q-239 0 -381 168h-4q-11 -20 -97 -94t-269 -74q-231 0 -325.5 95t-94.5 229t81 210
t297 129t243.5 81.5t27.5 70.5z" />
    <glyph glyph-name="ccedilla" unicode="&#xe7;" 
d="M620 -190q-48 0 -81 -33l-109 61l80 135q-196 23 -317 172t-121 398q0 320 169 446.5t345 126.5q177 0 299.5 -106.5t150.5 -284.5l-248 -47q-41 199 -208 199q-113 0 -179.5 -85t-66.5 -249t65 -249t169 -85t157.5 61.5t69.5 167.5l252 -65q-35 -181 -144 -284.5
t-274 -117.5l-58 -90l2 -2q47 31 115 31t123 -44t55 -130t-65 -139.5t-166 -53.5q-157 0 -250 97l88 106q68 -65 150 -65q45 0 70.5 18.5t25.5 47.5t-25.5 46t-73.5 17z" />
    <glyph glyph-name="egrave" unicode="&#xe8;" horiz-adv-x="1142" 
d="M577 883q-102 0 -164.5 -63.5t-70.5 -157.5h471q-9 104 -71.5 162.5t-164.5 58.5zM270 1475h283l166 -256h-223zM72 542q0 260 142 417t358 157t357.5 -157t141.5 -416v-80h-729q6 -125 68.5 -191.5t167.5 -66.5t164 51.5t106 118.5l186 -164q-166 -242 -448 -242
q-227 0 -370.5 156.5t-143.5 416.5z" />
    <glyph glyph-name="eacute" unicode="&#xe9;" horiz-adv-x="1142" 
d="M475 1219l166 256h283l-226 -256h-223zM577 883q-102 0 -164.5 -63.5t-70.5 -157.5h471q-9 104 -71.5 162.5t-164.5 58.5zM72 542q0 260 142 417t358 157t357.5 -157t141.5 -416v-80h-729q6 -125 68.5 -191.5t167.5 -66.5t164 51.5t106 118.5l186 -164
q-166 -242 -448 -242q-227 0 -370.5 156.5t-143.5 416.5z" />
    <glyph glyph-name="ecircumflex" unicode="&#xea;" horiz-adv-x="1142" 
d="M577 883q-102 0 -164.5 -63.5t-70.5 -157.5h471q-9 104 -71.5 162.5t-164.5 58.5zM311 1298l138 177h276l139 -177l-139 -108l-137 176l-142 -176zM72 542q0 260 142 417t358 157t357.5 -157t141.5 -416v-80h-729q6 -125 68.5 -191.5t167.5 -66.5t164 51.5t106 118.5
l186 -164q-166 -242 -448 -242q-227 0 -370.5 156.5t-143.5 416.5z" />
    <glyph glyph-name="edieresis" unicode="&#xeb;" horiz-adv-x="1142" 
d="M666 1219v235h249v-235h-249zM577 883q-102 0 -164.5 -63.5t-70.5 -157.5h471q-9 104 -71.5 162.5t-164.5 58.5zM258 1219v235h250v-235h-250zM72 542q0 260 142 417t358 157t357.5 -157t141.5 -416v-80h-729q6 -125 68.5 -191.5t167.5 -66.5t164 51.5t106 118.5
l186 -164q-166 -242 -448 -242q-227 0 -370.5 156.5t-143.5 416.5z" />
    <glyph glyph-name="igrave" unicode="&#xec;" horiz-adv-x="552" 
d="M143 0v1085h267v-1085h-267zM-57 1475h282l166 -256h-223z" />
    <glyph glyph-name="iacute" unicode="&#xed;" horiz-adv-x="552" 
d="M150 1219l165 256h283l-225 -256h-223zM143 0v1085h267v-1085h-267z" />
    <glyph glyph-name="icircumflex" unicode="&#xee;" horiz-adv-x="552" 
d="M143 0v1085h267v-1085h-267zM2 1298l137 177h277l139 -177l-139 -108l-137 176l-142 -176z" />
    <glyph glyph-name="idieresis" unicode="&#xef;" horiz-adv-x="552" 
d="M356 1219v235h250v-235h-250zM143 0v1085h267v-1085h-267zM-51 1219v235h250v-235h-250z" />
    <glyph glyph-name="eth" unicode="&#xf0;" horiz-adv-x="1159" 
d="M338 543q0 -322 242 -322t241 322q0 169 -57.5 248t-183.5 79t-184 -79t-58 -248zM72 542q0 274 124.5 424t329.5 150q72 0 139.5 -22t106.5 -56h4q-41 109 -133 244l-278 -76l-31 113l235 65q-101 123 -190 199v4h283q69 -76 120 -145l256 71l31 -112l-217 -60
q235 -374 235 -780q0 -141 -41.5 -255.5t-150 -225.5t-329.5 -111t-357.5 149.5t-136.5 423.5z" />
    <glyph glyph-name="ntilde" unicode="&#xf1;" horiz-adv-x="1208" 
d="M489 1444q85 0 157 -40t97 -40q60 0 76 70h135q-33 -226 -206 -226q-85 0 -157 40t-97 40q-61 0 -76 -69h-135q33 225 206 225zM143 0v1085h256v-104h4q44 57 122 96t165 39q181 0 283 -107t102 -298v-711h-266v645q0 112 -43.5 168.5t-143.5 56.5t-156 -55.5t-56 -150.5
v-664h-267z" />
    <glyph glyph-name="ograve" unicode="&#xf2;" horiz-adv-x="1159" 
d="M334 542q0 -162 66 -247.5t180 -85.5t179.5 86.5t65.5 246.5t-66.5 247.5t-178.5 87.5t-179 -86.5t-67 -248.5zM244 1475h282l166 -256h-223zM72 530q0 122 39 256t169.5 232t299.5 98q208 0 316.5 -108.5t149.5 -219t41 -246.5t-39 -245t-107.5 -180.5t-161 -109.5
t-199.5 -38t-199.5 38t-161.5 109.5t-108 181.5t-39 232z" />
    <glyph glyph-name="oacute" unicode="&#xf3;" horiz-adv-x="1159" 
d="M489 1219l166 256h283l-225 -256h-224zM334 542q0 -162 66 -247.5t180 -85.5t179.5 86.5t65.5 246.5t-66.5 247.5t-178.5 87.5t-179 -86.5t-67 -248.5zM72 530q0 122 39 256t169.5 232t299.5 98q208 0 316.5 -108.5t149.5 -219t41 -246.5t-39 -245t-107.5 -180.5
t-161 -109.5t-199.5 -38t-199.5 38t-161.5 109.5t-108 181.5t-39 232z" />
    <glyph glyph-name="ocircumflex" unicode="&#xf4;" horiz-adv-x="1159" 
d="M334 542q0 -162 66 -247.5t180 -85.5t179.5 86.5t65.5 246.5t-66.5 247.5t-178.5 87.5t-179 -86.5t-67 -248.5zM305 1298l137 177h277l139 -177l-139 -108l-137 176l-142 -176zM72 530q0 122 39 256t169.5 232t299.5 98q208 0 316.5 -108.5t149.5 -219t41 -246.5
t-39 -245t-107.5 -180.5t-161 -109.5t-199.5 -38t-199.5 38t-161.5 109.5t-108 181.5t-39 232z" />
    <glyph glyph-name="otilde" unicode="&#xf5;" horiz-adv-x="1159" 
d="M334 542q0 -162 66 -247.5t180 -85.5t179.5 86.5t65.5 246.5t-66.5 247.5t-178.5 87.5t-179 -86.5t-67 -248.5zM467 1444q85 0 157 -40t97 -40q60 0 76 70h135q-33 -226 -207 -226q-85 0 -157 40t-97 40q-61 0 -76 -69h-135q33 225 207 225zM72 530q0 122 39 256
t169.5 232t299.5 98q208 0 316.5 -108.5t149.5 -219t41 -246.5t-39 -245t-107.5 -180.5t-161 -109.5t-199.5 -38t-199.5 38t-161.5 109.5t-108 181.5t-39 232z" />
    <glyph glyph-name="odieresis" unicode="&#xf6;" horiz-adv-x="1159" 
d="M680 1219v235h250v-235h-250zM334 542q0 -162 66 -247.5t180 -85.5t179.5 86.5t65.5 246.5t-66.5 247.5t-178.5 87.5t-179 -86.5t-67 -248.5zM272 1219v235h250v-235h-250zM72 530q0 122 39 256t169.5 232t299.5 98q208 0 316.5 -108.5t149.5 -219t41 -246.5t-39 -245
t-107.5 -180.5t-161 -109.5t-199.5 -38t-199.5 38t-161.5 109.5t-108 181.5t-39 232z" />
    <glyph glyph-name="divide" unicode="&#xf7;" horiz-adv-x="950" 
d="M283 1162q0 80 55 136t136 56t136.5 -55.5t55.5 -136.5t-56 -136t-136 -55t-135.5 55.5t-55.5 135.5zM283 275q0 81 55 136.5t136 55.5t136.5 -55.5t55.5 -136.5t-56 -136t-136 -55t-135.5 55t-55.5 136zM82 623v204h786v-204h-786z" />
    <glyph glyph-name="oslash" unicode="&#xf8;" horiz-adv-x="1159" 
d="M590 209q104 0 169.5 87t65.5 223t-34 208l-363 -465q58 -53 162 -53zM334 566q0 -136 31 -212l362 465q-64 58 -160 58t-164.5 -87.5t-68.5 -223.5zM72 543q0 319 169.5 446t339.5 127t300 -100l77 100l82 -69l-82 -105q129 -155 129 -414t-144 -409t-363 -150
q-177 0 -306 97l-73 -97l-82 68l80 102q-127 152 -127 404z" />
    <glyph glyph-name="ugrave" unicode="&#xf9;" horiz-adv-x="1187" 
d="M262 1475h283l166 -256h-224zM133 385v700h266v-671q0 -103 39 -146t130 -43t150.5 49.5t59.5 159.5v651h266v-1085h-253v104h-5q-38 -50 -108.5 -92.5t-173.5 -42.5q-189 0 -280 112.5t-91 303.5z" />
    <glyph glyph-name="uacute" unicode="&#xfa;" horiz-adv-x="1187" 
d="M489 1219l166 256h283l-225 -256h-224zM133 385v700h266v-671q0 -103 39 -146t130 -43t150.5 49.5t59.5 159.5v651h266v-1085h-253v104h-5q-38 -50 -108.5 -92.5t-173.5 -42.5q-189 0 -280 112.5t-91 303.5z" />
    <glyph glyph-name="ucircumflex" unicode="&#xfb;" horiz-adv-x="1187" 
d="M324 1298l137 177h276l140 -177l-140 -108l-137 176l-141 -176zM133 385v700h266v-671q0 -103 39 -146t130 -43t150.5 49.5t59.5 159.5v651h266v-1085h-253v104h-5q-38 -50 -108.5 -92.5t-173.5 -42.5q-189 0 -280 112.5t-91 303.5z" />
    <glyph glyph-name="udieresis" unicode="&#xfc;" horiz-adv-x="1187" 
d="M698 1219v235h250v-235h-250zM291 1219v235h250v-235h-250zM133 385v700h266v-671q0 -103 39 -146t130 -43t150.5 49.5t59.5 159.5v651h266v-1085h-253v104h-5q-38 -50 -108.5 -92.5t-173.5 -42.5q-189 0 -280 112.5t-91 303.5z" />
    <glyph glyph-name="yacute" unicode="&#xfd;" horiz-adv-x="1126" 
d="M461 1219l166 256h282l-225 -256h-223zM10 1085h271l280 -735h4l281 735h270l-624 -1546h-265l217 514z" />
    <glyph glyph-name="thorn" unicode="&#xfe;" horiz-adv-x="1247" 
d="M410 432q0 -93 63.5 -155t175.5 -62t186 83.5t74 245.5t-73.5 244t-185.5 82t-176 -61.5t-64 -153.5v-223zM143 -461v1956h258v-504h5q44 53 119 89t171 36t180.5 -40t151.5 -111.5t107.5 -181.5t40.5 -240t-40.5 -240t-144.5 -222t-289 -112q-104 0 -178 34t-110 81h-4
v-545h-267z" />
    <glyph glyph-name="ydieresis" unicode="&#xff;" horiz-adv-x="1126" 
d="M637 1219v235h250v-235h-250zM229 1219v235h250v-235h-250zM10 1085h271l280 -735h4l281 735h270l-624 -1546h-265l217 514z" />
    <glyph glyph-name="OE" unicode="&#x152;" horiz-adv-x="2025" 
d="M715 223q196 0 291 129v725q-93 131 -291 131q-155 0 -245.5 -117.5t-90.5 -382.5t91.5 -375t244.5 -110zM82 721q0 152 48 325.5t206.5 295.5t357.5 122q103 0 187 -34t120 -72h5v76h907v-256h-631v-301h573v-246h-573v-375h631v-256h-907v76h-5q-36 -38 -120.5 -72.5
t-184.5 -34.5t-187.5 26t-166.5 84t-136 144.5t-90.5 216t-33.5 281.5z" />
    <glyph glyph-name="oe" unicode="&#x153;" horiz-adv-x="1882" 
d="M1092 664h469q0 94 -66.5 158.5t-176.5 64.5t-168 -63.5t-58 -159.5zM334 542q0 -162 66 -247.5t180 -85.5t179.5 87t65.5 246t-68.5 247t-176.5 88t-177 -86.5t-69 -248.5zM580 1116q238 0 374 -190q130 190 356 190t363 -151t137 -422v-80h-718q6 -125 68 -191.5
t166 -66.5t174.5 55t103.5 129l196 -117q-53 -131 -174 -217t-291 -86q-241 0 -377 191q-132 -191 -364 -191t-377 150t-145 424q0 319 169.5 446t338.5 127z" />
    <glyph glyph-name="Ydieresis" unicode="&#x178;" horiz-adv-x="1212" 
d="M686 1567v235h250v-235h-250zM279 1567v235h249v-235h-249zM743 0h-274v604l-469 830h297l307 -588h4l307 588h297l-469 -830v-604z" />
    <glyph glyph-name="circumflex" unicode="&#x2c6;" horiz-adv-x="634" 
d="M41 1298l137 177h277l139 -177l-139 -108l-138 176l-141 -176z" />
    <glyph glyph-name="tilde" unicode="&#x2dc;" horiz-adv-x="835" 
d="M289 1444q64 0 157 -41q68 -39 97 -39q59 0 75 70h136q-33 -226 -207 -226q-85 0 -157 40t-97 40q-61 0 -76 -69h-135q33 225 207 225z" />
    <glyph glyph-name="uni2000" unicode="&#x2000;" horiz-adv-x="926" 
 />
    <glyph glyph-name="uni2001" unicode="&#x2001;" horiz-adv-x="1853" 
 />
    <glyph glyph-name="uni2002" unicode="&#x2002;" horiz-adv-x="926" 
 />
    <glyph glyph-name="uni2003" unicode="&#x2003;" horiz-adv-x="1853" 
 />
    <glyph glyph-name="uni2004" unicode="&#x2004;" horiz-adv-x="617" 
 />
    <glyph glyph-name="uni2005" unicode="&#x2005;" horiz-adv-x="463" 
 />
    <glyph glyph-name="uni2006" unicode="&#x2006;" horiz-adv-x="308" 
 />
    <glyph glyph-name="uni2007" unicode="&#x2007;" horiz-adv-x="308" 
 />
    <glyph glyph-name="uni2008" unicode="&#x2008;" horiz-adv-x="231" 
 />
    <glyph glyph-name="uni2009" unicode="&#x2009;" horiz-adv-x="370" 
 />
    <glyph glyph-name="uni200A" unicode="&#x200a;" horiz-adv-x="102" 
 />
    <glyph glyph-name="uni2010" unicode="&#x2010;" horiz-adv-x="837" 
d="M82 569v205h674v-205h-674z" />
    <glyph glyph-name="uni2011" unicode="&#x2011;" horiz-adv-x="837" 
d="M82 569v205h674v-205h-674z" />
    <glyph glyph-name="figuredash" unicode="&#x2012;" horiz-adv-x="837" 
d="M82 569v205h674v-205h-674z" />
    <glyph glyph-name="endash" unicode="&#x2013;" horiz-adv-x="1185" 
d="M82 549v225h1022v-225h-1022z" />
    <glyph glyph-name="emdash" unicode="&#x2014;" horiz-adv-x="1984" 
d="M184 549v225h1616v-225h-1616z" />
    <glyph glyph-name="quoteleft" unicode="&#x2018;" horiz-adv-x="632" 
d="M164 868v258q0 133 73.5 215t231.5 93v-140q-67 -11 -83.5 -38.5t-16.5 -96.5h100v-291h-305z" />
    <glyph glyph-name="quoteright" unicode="&#x2019;" horiz-adv-x="632" 
d="M264 1143h-100v291h305v-258q0 -133 -73.5 -215t-231.5 -93v140q67 11 83.5 38.5t16.5 96.5z" />
    <glyph glyph-name="quotesinglbase" unicode="&#x201a;" horiz-adv-x="632" 
d="M164 0v291h305v-258q0 -132 -73.5 -214t-231.5 -93v139q67 11 83.5 38.5t16.5 96.5h-100z" />
    <glyph glyph-name="quotedblleft" unicode="&#x201c;" horiz-adv-x="1081" 
d="M612 868v258q0 132 74 214.5t232 93.5v-140q-67 -11 -84 -38.5t-17 -96.5h101v-291h-306zM164 868v258q0 133 73.5 215t231.5 93v-140q-67 -11 -83.5 -38.5t-16.5 -96.5h100v-291h-305z" />
    <glyph glyph-name="quotedblright" unicode="&#x201d;" horiz-adv-x="1081" 
d="M713 1143h-101v291h306v-258q0 -132 -74 -214.5t-232 -93.5v140q67 11 84 38.5t17 96.5zM264 1143h-100v291h305v-258q0 -133 -73.5 -215t-231.5 -93v140q67 11 83.5 38.5t16.5 96.5z" />
    <glyph glyph-name="quotedblbase" unicode="&#x201e;" horiz-adv-x="1081" 
d="M612 0v291h306v-258q0 -132 -74 -214t-232 -93v139q67 11 84 38.5t17 96.5h-101zM164 0v291h305v-258q0 -132 -73.5 -214t-231.5 -93v139q67 11 83.5 38.5t16.5 96.5h-100z" />
    <glyph glyph-name="bullet" unicode="&#x2022;" horiz-adv-x="681" 
d="M92 670q0 110 68 182t180 72t181 -72t69 -182t-69.5 -181t-180.5 -71t-179.5 71t-68.5 181z" />
    <glyph glyph-name="ellipsis" unicode="&#x2026;" horiz-adv-x="1857" 
d="M1389 0v291h305v-291h-305zM776 0v291h305v-291h-305zM164 0v291h305v-291h-305z" />
    <glyph glyph-name="uni202F" unicode="&#x202f;" horiz-adv-x="370" 
 />
    <glyph glyph-name="guilsinglleft" unicode="&#x2039;" horiz-adv-x="774" 
d="M164 575l223 381h225l-225 -381l244 -411h-225z" />
    <glyph glyph-name="guilsinglright" unicode="&#x203a;" horiz-adv-x="774" 
d="M143 164l244 411l-225 381h225l223 -381l-241 -411h-226z" />
    <glyph glyph-name="uni205F" unicode="&#x205f;" horiz-adv-x="463" 
 />
    <glyph glyph-name="Euro" unicode="&#x20ac;" horiz-adv-x="1538" 
d="M123 455v184h127q-4 66 -4 100v37h-123v185h147q56 244 225 373.5t381 129.5t366.5 -138t178.5 -372l-274 -43q-18 123 -83 210t-180 87q-116 0 -198.5 -64t-122.5 -183h348v-185h-381v-37q0 -23 5 -100h376v-184h-340q42 -117 120.5 -173.5t161.5 -56.5q151 0 214.5 96
t81.5 248l287 -63q-34 -250 -182.5 -393.5t-373.5 -143.5t-384.5 118.5t-219.5 367.5h-153z" />
    <glyph glyph-name="trademark" unicode="&#x2122;" horiz-adv-x="1542" 
d="M713 739v695h161l226 -478h4l223 478h164v-695h-156v383h-4l-178 -383h-102l-179 369h-4v-369h-155zM82 1278v156h528v-156h-182v-539h-164v539h-182z" />
    <glyph glyph-name="uni25FC" unicode="&#x25fc;" horiz-adv-x="1085" 
d="M0 0v1085h1085v-1085h-1085z" />
    </font>
</defs>
</svg>
